<svg width="24" height="24" viewBox="0 0 24 24" fill="none" xmlns="http://www.w3.org/2000/svg">
<rect width="24" height="24" rx="12" fill="#FE4387"/>
<path d="M12.0019 6.09788C13.9258 6.09788 14.1516 6.10645 14.912 6.14076C15.6153 6.1722 15.9955 6.28941 16.2499 6.38946C16.5872 6.52096 16.8273 6.67533 17.0789 6.92689C17.3305 7.17845 17.4877 7.41858 17.6163 7.7559C17.7135 8.01032 17.8336 8.39052 17.865 9.09375C17.8993 9.85415 17.9079 10.08 17.9079 12.0039C17.9079 13.9277 17.8993 14.1536 17.865 14.914C17.8336 15.6172 17.7164 15.9974 17.6163 16.2518C17.4848 16.5891 17.3305 16.8293 17.0789 17.0808C16.8273 17.3324 16.5872 17.4896 16.2499 17.6183C15.9955 17.7155 15.6153 17.8355 14.912 17.867C14.1516 17.9013 13.9258 17.9098 12.0019 17.9098C10.078 17.9098 9.85221 17.9013 9.09181 17.867C8.38858 17.8355 8.00838 17.7183 7.75396 17.6183C7.41664 17.4868 7.17651 17.3324 6.92495 17.0808C6.67338 16.8293 6.51616 16.5891 6.38752 16.2518C6.29032 15.9974 6.17026 15.6172 6.13882 14.914C6.10451 14.1536 6.09594 13.9277 6.09594 12.0039C6.09594 10.08 6.10451 9.85415 6.13882 9.09375C6.17026 8.39052 6.28747 8.01032 6.38752 7.7559C6.51902 7.41858 6.67338 7.17845 6.92495 6.92689C7.17651 6.67533 7.41664 6.5181 7.75396 6.38946C8.00838 6.29227 8.38858 6.1722 9.09181 6.14076C9.85221 6.1036 10.0809 6.09788 12.0019 6.09788ZM12.0019 4.80005C10.0466 4.80005 9.80076 4.80862 9.03178 4.84293C8.26566 4.87723 7.74252 5.00015 7.28514 5.17739C6.8106 5.36035 6.41039 5.60905 6.01018 6.00926C5.60996 6.40947 5.36412 6.81254 5.17831 7.28422C5.00107 7.74161 4.87815 8.26474 4.84384 9.03372C4.80954 9.79984 4.80096 10.0457 4.80096 12.001C4.80096 13.9563 4.80954 14.2022 4.84384 14.9711C4.87815 15.7373 5.00107 16.2604 5.17831 16.7206C5.36126 17.1952 5.60996 17.5954 6.01018 17.9956C6.41039 18.3958 6.81346 18.6417 7.28514 18.8275C7.74252 19.0047 8.26566 19.1276 9.03464 19.1619C9.80361 19.1962 10.0466 19.2048 12.0048 19.2048C13.963 19.2048 14.2059 19.1962 14.9749 19.1619C15.741 19.1276 16.2642 19.0047 16.7244 18.8275C17.199 18.6445 17.5992 18.3958 17.9994 17.9956C18.3996 17.5954 18.6454 17.1923 18.8313 16.7206C19.0085 16.2633 19.1314 15.7401 19.1657 14.9711C19.2 14.2022 19.2086 13.9592 19.2086 12.001C19.2086 10.0428 19.2 9.79984 19.1657 9.03086C19.1314 8.26474 19.0085 7.74161 18.8313 7.28136C18.6483 6.80682 18.3996 6.40661 17.9994 6.0064C17.5992 5.60619 17.1961 5.36035 16.7244 5.17453C16.267 4.9973 15.7439 4.87437 14.9749 4.84007C14.2031 4.80862 13.9572 4.80005 12.0019 4.80005Z" fill="white"/>
<path d="M12.0019 8.30469C9.96082 8.30469 8.3028 9.95985 8.3028 12.0038C8.3028 14.0477 9.95796 15.7029 12.0019 15.7029C14.0458 15.7029 15.701 14.0477 15.701 12.0038C15.701 9.95985 14.0458 8.30469 12.0019 8.30469ZM12.0019 14.4022C10.6755 14.4022 9.60062 13.3273 9.60062 12.0009C9.60062 10.6745 10.6755 9.59966 12.0019 9.59966C13.3283 9.59966 14.4032 10.6745 14.4032 12.0009C14.4032 13.3273 13.3283 14.4022 12.0019 14.4022Z" fill="white"/>
<path d="M15.8468 9.01935C16.3236 9.01935 16.7101 8.63283 16.7101 8.15604C16.7101 7.67924 16.3236 7.29272 15.8468 7.29272C15.37 7.29272 14.9835 7.67924 14.9835 8.15604C14.9835 8.63283 15.37 9.01935 15.8468 9.01935Z" fill="white"/>
</svg>
