<svg width="30" height="30" viewBox="0 0 30 30" fill="none" xmlns="http://www.w3.org/2000/svg">
<rect width="30" height="30" rx="15" fill="#1A1B1E"/>
<path d="M5.90125 23.7268L7.18741 19.0564C6.39225 17.6855 5.97511 16.133 5.97946 14.5459C5.97946 9.57271 10.0465 5.5293 15.0391 5.5293C17.4637 5.5293 19.7406 6.46772 21.4482 8.17157C23.1602 9.87543 24.1031 12.1415 24.0988 14.5502C24.0988 19.5234 20.0317 23.5668 15.0348 23.5668H15.0304C13.514 23.5668 12.0236 23.1863 10.6983 22.4684L5.90125 23.7268ZM10.9286 20.8381L11.2023 21.0024C12.3582 21.6857 13.6834 22.0446 15.0348 22.0489H15.0391C19.1887 22.0489 22.5693 18.6888 22.5693 14.5546C22.5693 12.5523 21.7871 10.6711 20.3663 9.2527C18.9454 7.83426 17.0509 7.05585 15.0391 7.05585C10.8895 7.05152 7.50895 10.4117 7.50895 14.5459C7.50895 15.96 7.90436 17.3395 8.66042 18.5331L8.83857 18.8185L8.07817 21.5819L10.9286 20.8381Z" fill="white"/>
<path d="M6.21851 23.4111L7.46122 18.9007C6.69213 17.5817 6.28803 16.0811 6.28803 14.5502C6.29237 9.75 10.2161 5.84497 15.0392 5.84497C17.3812 5.84497 19.5755 6.75312 21.2267 8.39643C22.8778 10.0397 23.786 12.2279 23.786 14.5545C23.786 19.3547 19.858 23.2598 15.0392 23.2598H15.0348C13.5705 23.2598 12.1323 22.8922 10.8548 22.2003L6.21851 23.4111Z" fill="#1A1B1E"/>
<path d="M5.90125 23.7268L7.18741 19.0564C6.39225 17.6855 5.97511 16.133 5.97946 14.5459C5.97946 9.57271 10.0465 5.5293 15.0391 5.5293C17.4637 5.5293 19.7406 6.46772 21.4482 8.17157C23.1602 9.87543 24.1031 12.1415 24.0988 14.5502C24.0988 19.5234 20.0317 23.5668 15.0348 23.5668H15.0304C13.514 23.5668 12.0236 23.1863 10.6983 22.4684L5.90125 23.7268ZM10.9286 20.8381L11.2023 21.0024C12.3582 21.6857 13.6834 22.0446 15.0348 22.0489H15.0391C19.1887 22.0489 22.5693 18.6888 22.5693 14.5546C22.5693 12.5523 21.7871 10.6711 20.3663 9.2527C18.9454 7.83426 17.0509 7.05585 15.0391 7.05585C10.8895 7.05152 7.50895 10.4117 7.50895 14.5459C7.50895 15.96 7.90436 17.3395 8.66042 18.5331L8.83857 18.8185L8.07817 21.5819L10.9286 20.8381Z" fill="url(#paint0_linear_37_517)"/>
<path fillRule="evenodd" clipRule="evenodd" d="M12.7752 10.7749C12.6057 10.3987 12.4276 10.3901 12.2668 10.3857C12.1365 10.3814 11.9844 10.3814 11.8323 10.3814C11.6802 10.3814 11.4369 10.4376 11.2283 10.6625C11.0198 10.8874 10.4375 11.4323 10.4375 12.5437C10.4375 13.6507 11.25 14.7232 11.363 14.8746C11.476 15.0259 12.9316 17.3741 15.2302 18.278C17.1421 19.0304 17.5331 18.8791 17.9459 18.8402C18.3587 18.8012 19.2842 18.2953 19.4754 17.7677C19.6623 17.2401 19.6623 16.7903 19.6058 16.6952C19.5493 16.6001 19.3972 16.5438 19.1713 16.4314C18.9453 16.319 17.833 15.7741 17.6244 15.6962C17.4158 15.6227 17.2637 15.5838 17.116 15.8087C16.9639 16.0335 16.5294 16.5395 16.3991 16.6909C16.2687 16.8422 16.134 16.8595 15.9081 16.7471C15.6821 16.6347 14.9521 16.3968 14.0874 15.627C13.4139 15.0303 12.9577 14.2908 12.8273 14.0659C12.697 13.841 12.8143 13.7199 12.9273 13.6075C13.0272 13.508 13.1532 13.3437 13.2662 13.214C13.3792 13.0842 13.4183 12.9891 13.4921 12.8377C13.566 12.6864 13.5313 12.5566 13.4748 12.4442C13.4183 12.3361 12.9751 11.2204 12.7752 10.7749Z" fill="white"/>
<defs>
<linearGradient id="paint0_linear_37_517" x1="15.0018" y1="23.7251" x2="15.0018" y2="5.5293" gradientUnits="userSpaceOnUse">
<stop stop-color="#F9F9F9"/>
<stop offset="1" stop-color="white"/>
</linearGradient>
</defs>
</svg>
