<svg width="30" height="30" viewBox="0 0 30 30" fill="none" xmlns="http://www.w3.org/2000/svg">
<rect width="30" height="30" rx="15" fill="#1A1B1E"/>
<path fillRule="evenodd" clipRule="evenodd" d="M24.255 15.2216C24.255 14.5302 24.193 13.8654 24.0777 13.2273H14.895V16.9987H20.1423C19.9163 18.2175 19.2293 19.2501 18.1967 19.9415V22.3878H21.3477C23.1914 20.6904 24.255 18.1909 24.255 15.2216Z" fill="white"/>
<path fillRule="evenodd" clipRule="evenodd" d="M14.8951 24.75C17.5276 24.75 19.7346 23.8769 21.3478 22.3878L18.1968 19.9415C17.3237 20.5265 16.2069 20.8721 14.8951 20.8721C12.3556 20.8721 10.2062 19.157 9.43951 16.8525H6.18213V19.3786C7.78645 22.5651 11.0837 24.75 14.8951 24.75Z" fill="white"/>
<path fillRule="evenodd" clipRule="evenodd" d="M9.43945 16.8525C9.24445 16.2675 9.13365 15.6426 9.13365 15C9.13365 14.3574 9.24445 13.7325 9.43945 13.1475V10.6214H6.18206C5.52172 11.9376 5.14502 13.4267 5.14502 15C5.14502 16.5733 5.52172 18.0624 6.18206 19.3786L9.43945 16.8525Z" fill="white"/>
<path fillRule="evenodd" clipRule="evenodd" d="M14.8951 9.12784C16.3266 9.12784 17.6118 9.61977 18.6222 10.5859L21.4187 7.78943C19.7302 6.21614 17.5231 5.25 14.8951 5.25C11.0837 5.25 7.78645 7.43489 6.18213 10.6214L9.43951 13.1475C10.2062 10.843 12.3556 9.12784 14.8951 9.12784Z" fill="white"/>
</svg>
