<svg width="30" height="30" viewBox="0 0 30 30" fill="none" xmlns="http://www.w3.org/2000/svg">
<rect width="30" height="30" rx="15" fill="#1A1B1E"/>
<path fillRule="evenodd" clipRule="evenodd" d="M6.79002 14.8417C11.1628 12.9365 14.0787 11.6805 15.5377 11.0737C19.7033 9.34105 20.5689 9.04007 21.1331 9.03014C21.2572 9.02795 21.5346 9.0587 21.7144 9.20453C21.8661 9.32767 21.9079 9.494 21.9279 9.61075C21.9478 9.72749 21.9727 9.99344 21.9529 10.2012C21.7272 12.5731 20.7504 18.329 20.2535 20.9855C20.0432 22.1095 19.6292 22.4864 19.2284 22.5233C18.3573 22.6035 17.6959 21.9477 16.8522 21.3946C15.532 20.5292 14.7861 19.9905 13.5047 19.146C12.0237 18.1701 12.9838 17.6337 13.8278 16.7571C14.0486 16.5277 17.8866 13.0367 17.9609 12.72C17.9702 12.6804 17.9788 12.5328 17.8911 12.4548C17.8034 12.3769 17.674 12.4035 17.5805 12.4247C17.4481 12.4548 15.3391 13.8488 11.2535 16.6067C10.6548 17.0178 10.1126 17.2181 9.62676 17.2076C9.09119 17.196 8.06095 16.9047 7.29507 16.6558C6.3557 16.3504 5.6091 16.189 5.67411 15.6704C5.70797 15.4003 6.07994 15.1241 6.79002 14.8417Z" fill="white"/>
</svg>
